<mxfile host="Electron" agent="Mozilla/5.0 (Windows NT 10.0; Win64; x64) AppleWebKit/537.36 (KHTML, like Gecko) draw.io/24.7.17 Chrome/128.0.6613.36 Electron/32.0.1 Safari/537.36" version="24.7.17">
  <diagram name="Страница — 1" id="c2pELBRY3zPiL2gB-__q">
    <mxGraphModel dx="1221" dy="717" grid="1" gridSize="10" guides="1" tooltips="1" connect="1" arrows="1" fold="1" page="1" pageScale="1" pageWidth="1169" pageHeight="1654" math="0" shadow="0">
      <root>
        <mxCell id="0" />
        <mxCell id="1" parent="0" />
        <mxCell id="W0-8NFHALbDZjy8Cr0dU-3" style="edgeStyle=orthogonalEdgeStyle;rounded=0;orthogonalLoop=1;jettySize=auto;html=1;" edge="1" parent="1" source="W0-8NFHALbDZjy8Cr0dU-1" target="W0-8NFHALbDZjy8Cr0dU-2">
          <mxGeometry relative="1" as="geometry" />
        </mxCell>
        <mxCell id="W0-8NFHALbDZjy8Cr0dU-1" value="&lt;font color=&quot;#ff3333&quot;&gt;Start&lt;/font&gt;" style="ellipse;whiteSpace=wrap;html=1;" vertex="1" parent="1">
          <mxGeometry x="525" y="20" width="120" height="80" as="geometry" />
        </mxCell>
        <mxCell id="W0-8NFHALbDZjy8Cr0dU-5" style="edgeStyle=orthogonalEdgeStyle;rounded=0;orthogonalLoop=1;jettySize=auto;html=1;" edge="1" parent="1" source="W0-8NFHALbDZjy8Cr0dU-2" target="W0-8NFHALbDZjy8Cr0dU-4">
          <mxGeometry relative="1" as="geometry" />
        </mxCell>
        <mxCell id="W0-8NFHALbDZjy8Cr0dU-2" value="double a=10.2&lt;div&gt;b=9.3, x=2.4,c=0.5&lt;/div&gt;" style="rounded=0;whiteSpace=wrap;html=1;" vertex="1" parent="1">
          <mxGeometry x="525" y="130" width="120" height="60" as="geometry" />
        </mxCell>
        <mxCell id="W0-8NFHALbDZjy8Cr0dU-7" style="edgeStyle=orthogonalEdgeStyle;rounded=0;orthogonalLoop=1;jettySize=auto;html=1;" edge="1" parent="1" source="W0-8NFHALbDZjy8Cr0dU-4" target="W0-8NFHALbDZjy8Cr0dU-6">
          <mxGeometry relative="1" as="geometry" />
        </mxCell>
        <mxCell id="W0-8NFHALbDZjy8Cr0dU-4" value="double K=log(a+pow(x,3))+pow(sin(x/b),2)" style="rounded=0;whiteSpace=wrap;html=1;" vertex="1" parent="1">
          <mxGeometry x="460" y="220" width="250" height="40" as="geometry" />
        </mxCell>
        <mxCell id="W0-8NFHALbDZjy8Cr0dU-10" style="edgeStyle=orthogonalEdgeStyle;rounded=0;orthogonalLoop=1;jettySize=auto;html=1;" edge="1" parent="1" source="W0-8NFHALbDZjy8Cr0dU-6" target="W0-8NFHALbDZjy8Cr0dU-8">
          <mxGeometry relative="1" as="geometry" />
        </mxCell>
        <mxCell id="W0-8NFHALbDZjy8Cr0dU-6" value="double M=exp(-ec*x)*(x+cbrt(x+a))/&lt;div&gt;(x-sqrt(abs(x-b)))&lt;/div&gt;" style="rounded=0;whiteSpace=wrap;html=1;" vertex="1" parent="1">
          <mxGeometry x="460" y="290" width="250" height="40" as="geometry" />
        </mxCell>
        <mxCell id="W0-8NFHALbDZjy8Cr0dU-11" style="edgeStyle=orthogonalEdgeStyle;rounded=0;orthogonalLoop=1;jettySize=auto;html=1;" edge="1" parent="1" source="W0-8NFHALbDZjy8Cr0dU-8" target="W0-8NFHALbDZjy8Cr0dU-9">
          <mxGeometry relative="1" as="geometry" />
        </mxCell>
        <mxCell id="W0-8NFHALbDZjy8Cr0dU-8" value="K equals:K" style="shape=parallelogram;perimeter=parallelogramPerimeter;whiteSpace=wrap;html=1;fixedSize=1;" vertex="1" parent="1">
          <mxGeometry x="517.5" y="360" width="135" height="40" as="geometry" />
        </mxCell>
        <mxCell id="W0-8NFHALbDZjy8Cr0dU-13" style="edgeStyle=orthogonalEdgeStyle;rounded=0;orthogonalLoop=1;jettySize=auto;html=1;" edge="1" parent="1" source="W0-8NFHALbDZjy8Cr0dU-9" target="W0-8NFHALbDZjy8Cr0dU-12">
          <mxGeometry relative="1" as="geometry" />
        </mxCell>
        <mxCell id="W0-8NFHALbDZjy8Cr0dU-9" value="M equals:M" style="shape=parallelogram;perimeter=parallelogramPerimeter;whiteSpace=wrap;html=1;fixedSize=1;" vertex="1" parent="1">
          <mxGeometry x="517" y="430" width="135" height="40" as="geometry" />
        </mxCell>
        <mxCell id="W0-8NFHALbDZjy8Cr0dU-12" value="&lt;font color=&quot;#ff3333&quot;&gt;End&lt;/font&gt;" style="ellipse;whiteSpace=wrap;html=1;" vertex="1" parent="1">
          <mxGeometry x="525" y="500" width="120" height="80" as="geometry" />
        </mxCell>
      </root>
    </mxGraphModel>
  </diagram>
</mxfile>
